<?xml version="1.0" encoding="UTF-8"?>
<svg xmlns="http://www.w3.org/2000/svg" version="1.1" viewBox="0 0 1417.3 1417.3">
  <defs>
    <style>
      .cls-1, .cls-2 {
        fill: #fff;
      }

      .cls-2 {
        fill-rule: evenodd;
      }
    </style>
  </defs>
  <!-- Generator: Adobe Illustrator 28.6.0, SVG Export Plug-In . SVG Version: 1.2.0 Build 709)  -->
  <g>
    <g id="Layer_1">
      <g>
        <path class="cls-1" d="M517.8,1054l-120.1,220.4h143.5l121.4-220.4h-54l-99.1,177.8h-36.9l99.4-177.8h-54.1ZM1172.3,1138.5h-137.6l-26.2,42.6h137.6l26.2-42.6ZM752.7,1129.4h0s31.1-38.2,31.1-38.2c.3-.4,4-4.9,4-12.3,0-3.9-1.1-8.5-4.2-13.2-7.7-11.6-20.3-11.6-20.8-11.6h-87.5l-121.4,220.4h127.2c1.7,0,7.4-.2,16-2.6,2.5-.8,10.2-3.3,16.3-7.5,6.8-4.2,10.3-10.2,10.5-10.6l42-81.7v-.2c.2-.3,2.3-5.2,2.4-11.3,0-1.9-.2-3.9-.9-6-3.4-9.6-10.5-14.7-11.5-15.4-3.2-2.2-6-4-8.2-5.4,3.1-2.1,4.4-3.6,5-4.3ZM721.7,1177.6c-1.2,3.5-9.2,18.4-13,24.2-3.8,5.8-16.4,21.3-16.4,21.3,0,0-.5.6-1.7,1.7-1.2,1.1-3,2.7-5.4,4.3-3.5,2.5-10.9,2.9-11.9,2.8h-49.7l45.1-83.5h38.3c.5.1,1.3.3,2.4.6,1,.3,2.2.9,4.7,1.9,2.3.8,8.8,5,9,8.7.3,1.7.5,3.6.5,5.7,0,4.8-.9,10.1-1.7,12.4h0ZM726.8,1107l-.2.2s-.8.5-2,1c-1.5.7-2.5,1.1-3.1,1.2h-.5c0,.1-30.8.1-30.8.1l13.9-26.8h37.3c0,0-14.6,24.3-14.6,24.3ZM1035.7,1085.1c0-6.3-1.3-13.2-5.1-19.7-3.9-6.4-10.5-8.8-15.7-10.1-5.3-1.2-9.6-1.2-9.8-1.2h-70.7c-.5,0-7,0-12.8,2.5-6.7,2.8-9.3,5.7-10.3,7.5-1.2,1.8-10.5,15.4-20.2,30-10.6,15.9-21.4,32.5-24.2,38.7-3.1,7.1-4.8,12.3-4.8,17.3,0,3.3.8,6.3,2.1,9,2.7,5.7,7.4,12.3,15.8,17.5,7.3,4.4,14.8,4.5,15.2,4.5h39.8l-40.2,73.5c-.1.2-.2.4-.7,1.3-1.6,2.4-6.3,9.1-17.7,17.9-6.3,4.9-12,7.7-16.1,9.3-2,.8-3.6,1.3-4.7,1.5-.6.2-1,.2-1.2.3H246.7l-22.6,43.1h629.6c0,0,.3,0,1.2,0,3.1,0,11.3-.2,24.4-2.3,17.5-2.6,26-10.7,32.2-16.8,7.7-7.4,13.1-16.5,13.2-16.7l103.5-179.2c.1-.3,7.6-12.6,7.6-28ZM971.8,1097.2c-.2.7-.3.8-.3.8v.2c-.1,0-3.7,8-8.1,16.8-4.2,8.7-9.8,18.6-12,20.7-2.1,2.1-3.3,3.4-4.1,4.2l-.7.8c-.5.2-1.3.6-2.4.9-2.5.7-6.5.8-6.5.8h-17.5c-.6-.3-1.5-1-1.8-2.6-.2-1-.2-1.7-.2-2.3,0-.9.1-1.3.2-1.6l19.2-35c.1-.2.6-1.2,1.3-2.4.8-1.3,1.8-2.9,2.7-3.8.8-.9,1.6-1.4,2.2-1.7h.2c0-.1,25.6-.1,25.6-.1h.3c.6.1,1.5.4,2,.6h.2c0,.1,0,1.2,0,1.2,0,.9-.2,1.9-.4,2.5ZM372.8,1054l-121,220.4h133.2l21.3-42.6h-76.1l97.9-177.8h-55.3ZM1309.2,1232.8h-115.9l105.9-166.4h0c.2-.6,4.5-8.8,4.6-20.7,0-7.7-1.9-16.9-8-26-13.2-19.7-30-21.2-30.9-21.2H327.8s0,0,0,0c-1.5,0-21.3.2-59.1,12.9-24,8-51.2,20.9-73.6,37.4-51.5,37.8-60.3,57.1-65.8,65-2.8,4.1-7.4,12.9-11.5,24.2-5.1,14.1-9.4,31.5-9.5,46.7,0,2.4.1,4.9.4,7.2.9,8.2,2,17.9,5.3,27.7,3.4,10,8.9,19.4,14.6,26.7,5.2,6.5,17.8,14.7,28.9,19.4,12.5,5.2,22.6,7.5,29.9,8.6,5.9.9,10.5,1.1,14.6,1.1h.4c1.9,0,3.8,0,5.6,0,11.2,0,20.6-1,20.7-1l2.6-.3,21.7-41.7-8.8.7s-9.2.8-19.9.8c-10.1,0-21.8-.8-27-2.9-17.9-7.1-38-19.1-41.1-45.9-.4-3.5-.6-6.8-.6-9.9,0-21.9,8.8-35.2,15.2-43.8,7.1-9.6,27.2-31.4,38.4-39.5,11.2-8,30.6-20.8,58-33,11.3-5.1,27.4-8.7,40.5-10.9,12.1-2.1,21.5-3,23-3.1h888.8c.2,0,5.8.4,11.4,2.2,2.8.9,5.5,2.2,7.2,3.6,1.7,1.5,2.2,2.6,2.3,4.4,0,1.3-.5,3.4-2.3,6.3-6.7,10.8-39.2,62.3-70,110.9-30.8,48.7-59.8,94.5-59.9,94.6l-4.8,7.5h180.2l25.8-41.6Z"/>
        <g>
          <path class="cls-2" d="M629.9,971.8c-14.2.7-26.7-1.2-39.2-3.3-2.7-.5-5.4-1.2-7.6-3-2-1.7-2.8-4-2.3-6.7.5-2.9,2.3-4.3,5-4.7,21.6-2.7,43.3-4.8,65-2.2,7.1.8,14.2,1.8,21.3,2.8,4.5.6,7.1,3,7.3,7.5.2,5.1-3.8,5.5-7.4,5.8-14.5,1.6-29,3.4-42.2,3.7ZM656.4,962c-13.3-5.2-55-5.5-66.8,1.2,23.5,2.4,45.2,2.5,66.8-1.2Z"/>
          <path class="cls-2" d="M735,959.2c9,0,17.3-.7,24.9,3.5,1.9,1,4.3,1.7,4.2,4.5,0,2.5-1.8,4.2-3.9,4.9-15.6,5.5-31.1,5.5-46.6-.4-2-.8-2.9-2.6-2.6-4.7.5-3.3,2.7-5.2,5.9-6.1,6.2-1.7,12.5-1.3,18-1.7Z"/>
          <path class="cls-2" d="M407.4,830.5c1.9,17,3.6,34,10.2,50-9.5-15.5-11-32.5-10.2-50Z"/>
          <path class="cls-2" d="M509.6,499.8c8.6-2.3,17.7-2.6,26.5-3.3,50-4,99.4.8,148.5,11,33.3,6.9,65.1,18,97,29.2,9.3,3.3,18,6.7,26.1,12,1.2.8,2.3,1.5,3.4,2.4,2.3,2,3.8,4.8,2.2,7.3-1.9,3-4.7,1.1-7.2-.2-13.3-7.3-26.8-14.1-41-19.5-68.7-26.1-139.6-39.8-213.2-38-11.8.3-23.6,2.2-35.3,3.4-2.9.3-6.3,1.5-7-4.3Z"/>
          <path class="cls-2" d="M588.8,307.8c-1.3-4,2.5-4.7,4.4-6.1,3.3-2.4,7.1-4.2,10.7-6.1,6.8-3.6,7.7-3.1,9.2,4.9-2,1.1-4.2.8-6.4,1-5.1.4-8.5,2.5-10.1,7.9-2.5,8.5-6.9,16.2-12.6,23-4.9,5.8-11.5,9.8-18.8,6.6-6-2.6-8.2-.1-10.1,4.1-2.2,4.9-2.2,9.7,2.7,13.2,5.3,3.8,10.5,3.1,17.2-2.4,11.8-9.8,21.1-21.5,27.6-35.4.9-2,2.1-3.8,3.3-5.7.2-.2.9,0,1.9-.1-.3,8.8-8,14.8-8.8,23.2-.4,0-.8.1-1.2.2.2.3.3.5.5.8.2-.4.4-.8.5-1.2,5.2-3.1,5.5-9.9,10.7-13.8.7,4.4-2,6.9-3.9,9.5-10.8,15.5-21.2,31.5-39.4,39.8-9.5,4.3-13.7,3.7-20.2-5.9,14.1,6.3,24.9,1.2,34.6-8,2.8-.5,3.8-2.8,5-4.9,1.1-1.1,2.3-2.2,3.4-3.3,1.4-.9,2.3-2.1,3-5.2-2,2.5-3.2,3.5-2.8,5.3-1.5.7-3.5.9-3.4,3.3-2.4.9-5.2,1.3-5,4.9-3.8-.9-5.8,2.4-8.7,3.7-8,3.7-15.8,2.3-20.9-4-5.2-6.6-4.7-12.5,1.4-20,1.9-2.4,5.2-4.1,5-7.9l-.2.2c2.5.2,3.8-.8,3.5-3.5l-.2.2c8.4-3.8,14-11.5,21.7-16.2,2-1.2,3.3-4.9,6.6-2.2-3.7,8.5-4.4,19.5-18.3,18.5-2.5-.2-8.2,3.9-5.9,9,2.3,4.9,6.9,2.6,10,.7,10.3-6.2,15.6-15.9,18.9-27.4-2.1-.3-3.5-.5-4.8-.6Z"/>
          <path class="cls-2" d="M694.7,286.2c.8,5.6,4.7,9.8,7.4,14.5,2.4,4.1,4.2,8.3,5.4,12.8-3.6,2.9-5.7-.5-7.8-2-21.4-15.8-45.3-26.6-70.3-35.3-2.9-1-5.5-2-4.3-5.6,1.5-4.4,4.7-2.5,7.5-1.5,18.5,7,36.5,15.1,52.6,26.9.8.6,1.4,1.7,3.6,1,.8-5.5-3.1-9.7-5.7-13.6-5.9-8.9-12.9-17-22.4-22.6-12.9-7.5-18-6.9-26.7,4.8,0-12.8,7.9-18.5,19.8-14.4,9.9,3.4,17.5,10.1,24.7,17.3,2.1,2.1,4.3,4.2,6.4,6.3v-.2c3.3,3.8,5,9.2,10,11.7l-.2-.2Z"/>
          <path class="cls-2" d="M649.4,319.9c-4.2-3.6-7.8-7.5-10-12.6-1-2.3-1.7-4.8-5.8-4.2-4.7.6-5.2-3.4-5.2-7.3,0-4.3,2.7-4.9,6-4.6,3,.3,6.1.5,8.9,1.3,19.6,5.5,38.7,12.1,56,23.1,1.9,1.2,3.7,2.4,4.8,4.4.5,2.4-2.3,2.7-2.8,4.6-4.1,14.5-14.6,15.1-25.9,11.8-4.7-1.4-9.1-3.6-13.7-5.4v.2c-2.3-3.2-6.7-4-8.9-7.5.5-.6,1-1.1,1.5-1.7,7.9,5.5,16.1,10.1,25.7,12,6.9,1.4,14.2-2.2,16-8.2.8-2.7,1.1-5.4-1.8-7.3-2.7-1.8-4.5-.5-6,1.8-.7,1.1-1.9,2-3.4,1,.2-2.5,3.5-5,.2-7.4-2.2-1.6-4.7-3.4-7.6-1.7-5.2,3-8.1.7-10.4-4-2-4.2-5.8-4.7-10.1-4.6,5.9,13.2,14.8,18.6,28,17.4-2.3,6.1-7,3.7-10.8,2.7-9-2.4-15-8.8-19.5-16.5-4.5-7.8-11.4-10.8-20.4-8.4.9,3.9,6.2,1.6,7.4,5.4,1.8,5.6,6.4,9.5,9.5,14.2-.6.5-1.1,1-1.6,1.5Z"/>
          <path class="cls-2" d="M478.5,503.1c8.5-.3,15.8.9,24.5,2-15.7,10.6-32.5,9.4-48.2,12.7-17.2,3.7-34.2,8.2-50.8,14-.6.2-1.1,1-1.9,1.7,4,2.7,9.5-.4,13.6,4.9h-34.7c7.9-7.7,18-9.8,27.6-12.7,22.1-6.8,44.4-12.5,67.1-16.4,4.2-.7,3.7-2.8,2.6-6.2Z"/>
          <path class="cls-2" d="M365.7,554.2c2.3-2.5.4-3.3-1.6-3.8-3.1-.8-6.6.3-10.2-2.1,4.6-3.8,11.1-5.5,15.1-5.7,17.2-.6,34.6-.1,51.7,3.2,0,.6,0,1.2,0,1.8-13.8-.8-27.5-1.5-41.3-2.3,0,.6-.2,1.2-.3,1.8,9.5,3.8,20.2,3.2,29.5,7.6-6-.5-12-1.6-17.7-1.1-1.1,2.1,1.6,2.4.5,4.1-8.6.2-16.9-3.9-25.8-3.7h0Z"/>
          <path class="cls-2" d="M577.2,388.8c-.7-4-5-5-6.7-8.4-1.6-3.1-1.9-5,1.1-7.6,8.2-7.3,22-8.2,31.5-1.4-1.7,2-3.4.6-5.1,0-3.2-1.1-6.5-1.5-9.7-1-3.8.6-8,1-9,5.7-.7,3.1,3.9,6.9,9.6,8.2-.8-3.3-6.8-3.9-4.5-7.6,2.4-3.8,6.5-1.4,9.9-1,2.8.3,5.5,1.2,8.3,2.7-4.8,2.1-10.2,2.1-13.6,6.8-.2,3.1,4.9,2.7,4.1,6.4-5.9,1.9-10.5-3.4-16.2-3.1h.2Z"/>
          <path class="cls-2" d="M643.8,327.3c10.4,10.4,22,19.1,36.3,23.3,14.9,4.5,21.2,2,28.2-10.7,2.8,8.8,1.1,13.7-6.6,17.2-6.6,3.1-13.4,2.8-20.1.4-16-5.7-29.1-15.2-39.1-29,.4-.4.9-.8,1.3-1.3Z"/>
          <path class="cls-2" d="M634.6,385.9c3.2-3.6,8.1-4.3,11.4-8.4-7.3,5.5-12.9-.3-19.2-1.9,7.8-5.2,15.7-5.9,24.1-2.1,2.8-4.1,1.5-6.5-3.1-7.6-4.7-1.1-9.3,0-13.9.1-1.4,0-3.2,1.8-4.2-.7,7-3.4,20-4.3,26.4-1.7,6.6,2.6,7.6,8.1,2.2,12.6-6.8,5.7-14.6,9.2-23.7,9.7Z"/>
          <path class="cls-2" d="M684.8,274.8c-.5-5.3-4.8-8.1-7.9-11.6-4.8-5.3-10.5-9.7-16.4-13.5-9.4-6.1-19.3-5-29.5,2.8-.9-8.2,3.6-13.9,11.8-14.5,6.8-.5,13.4.8,18.7,4.9,12.4,9.6,23.1,20.9,31.8,34-.9.6-1.8,1.2-2.6,1.8-2.5-.6-2.5-4.9-6-4v.2Z"/>
          <path class="cls-2" d="M557.5,329.2c-4.2,1.1-4.4,7-10.1,7.6,3.3-7.5,8.4-13,13.8-18.1,13.8-13,28.8-24.5,44.2-35.5,2.4-1.7,5-4.7,9-1.1-18.3,11.2-33.8,25.5-49.7,39-1.7,1.4-3.7,2.5-4.1,4.9l.2-.2c-2.1.2-2.9,1.7-3.5,3.5l.2-.2Z"/>
          <path class="cls-2" d="M740.2,351c5.1-1.9,8.8.8,12.5,2.1,15.2,5.7,30.6,11.2,43.2,22,1.7,1.5,5.3,2.7,3.1,5.6-2,2.6-4.3.2-6.2-1.4-13.6-10.5-28.7-18.3-44.7-24.3-2.5-.9-5.5-.9-7.7-4.1Z"/>
          <path class="cls-2" d="M661.6,330.8c-.2.5-.6,1.2-.4,1.4,9.1,10.4,32.4,10.9,42.3.6,1.9,2.5.8,4.3-.8,6.3-5.4,6.5-15.8,9.1-24.9,5.7-10.6-4-20.4-9.4-28.6-17.4-1.6-1.5-2.6-4.4-5.7-3.2h.2c1.2-4-3.2-5.3-5-9.2,6.3,0,7,6.9,11.5,7.7l-.2-.2c2.4,4.9,5.7,8.6,11.8,8.4v-.2Z"/>
          <path class="cls-2" d="M465,381.1c7.5-16.1,32-24.2,49.4-15.5-18.2-.2-34.9,4-49.4,15.5Z"/>
          <path class="cls-2" d="M811.6,513.9c4.3-2.2,7.4,6,10.7-.4,1.2,1.1,2.4,2.1,3.4,3.3,8,8.8,6.2,20.5,9.3,30.8-6.2-12.3-14.7-22.8-23.4-33.8Z"/>
          <path class="cls-2" d="M673.5,371c1.4,10.3-21,21.8-41.6,20.8,15.1-4,28.8-10.9,41.6-20.8Z"/>
          <path class="cls-2" d="M794.6,512.9c9.5,2.3,26.7,21.2,26.9,31-10-10.4-19.1-20-28.3-29.5.5-.5.9-.9,1.4-1.4Z"/>
          <path class="cls-2" d="M561,376.6c-7.2,5.1-14.6,8.9-23.4,4.6-4.2-2.1-8.1-5-6.2-11.7,7.3,14.3,18.9,8.1,29.5,7.1Z"/>
          <path class="cls-2" d="M647.3,396.5c10.9-3.4,22.2-5.4,33-9.4-9.6,8.1-21.2,9.1-33,9.4Z"/>
          <path class="cls-2" d="M814.3,548.8c-8.5-9.5-20.7-14.9-28-25.8,11.9,5.5,22.7,12.5,29.7,24.1-.6.6-1.1,1.1-1.7,1.7Z"/>
          <path class="cls-2" d="M577,388.6c3.4,3.9,9.9,2.7,14.2,8.7-11.7-1.6-22-2.2-28.4-13,6.1-1.9,9.1,5,14.4,4.4h-.2Z"/>
          <path class="cls-2" d="M627.1,283.1c10.1.7,19.6,3.4,28.4,8.5-9.2-3.7-19.8-2.7-28.4-8.5Z"/>
          <path class="cls-2" d="M693.3,276.9c8.4,9.8,14.8,20.8,19.6,32.6-8.2-6.3-10.4-17-18.3-23.3l.2.2c-.2-3.2-3.3-4.8-4.1-7.7.9-.6,1.8-1.2,2.6-1.8Z"/>
          <path class="cls-2" d="M715.8,360.8c-6.6,5.3-13.9,6-21.8,3.5,7-2.7,14.5-2,21.8-3.5Z"/>
          <path class="cls-2" d="M604.5,340.4c-3.4,7.5-6.7,15-13.5,20.4,2.3-8.2,7.6-14.4,13.5-20.4Z"/>
          <path class="cls-2" d="M587.4,401.2c-9.6.9-18.4-1.7-26.6-6.4,8.5,3.7,18,3.4,26.6,6.4Z"/>
          <path class="cls-2" d="M557.5,314.4c2.5-6.8,6.7-12.3,12.7-16.4-3.6,5.9-7,12-12.7,16.4Z"/>
          <path class="cls-2" d="M642.9,404.7c-6.5,0-10.5-2.6-14.9-5,4.9-1,7.5-.1,14.9,5Z"/>
          <path class="cls-2" d="M365.6,554.1c-1.8,1,.6,2.3-.7,4-3.8-.5-8.1-.2-11.8-3.9,4.7-2.8,8.5,2.5,12.5,0h0Z"/>
          <path class="cls-2" d="M816,547.1c3,2.5,5.3,5.2,4.2,10.8-2.3-3.6-4.1-6.4-5.9-9.1.6-.5,1.1-1.1,1.7-1.7Z"/>
          <path class="cls-2" d="M650.2,322.8c-.2-1-.5-1.9-.7-2.9.5-.5,1.1-1,1.6-1.5,1.1,1.1,2.1,2.2,3.2,3.3-.5.6-1,1.1-1.5,1.7-.9-.3-1.8-.6-2.8-.8l.2.2Z"/>
          <path class="cls-2" d="M642.5,328.6c-1.2-.7-2.2-1.6-2-3,.3-2,2.2-.5,3.1-1.2h-.2c.1.9.2,1.9.4,3-.4.4-.9.9-1.3,1.3Z"/>
          <path class="cls-2" d="M975.6,756.3c-1-.2-2-.3-3-.4h.2c-12.8-9.4-32.8-8.8-42.6,1.4-7.2,7.5-8.2,21.6-2.1,33,8,14.8,21.5,22.3,37.1,25,21.8,3.7,31.6-16.2,28-35-1-5.5-3.5-10.3-8-15.7,31.9,3.5,61.8,9,90,21-.2,1-.4,2-.7,3-13-3.2-26.1-6.2-39.1-9.5-13-3.3-26.2-5.1-39.5-6.5-1.5,6.8,1.4,8.6,6.7,9.4,13.9,2,27.6,5.5,41.2,8.8.9.2,1.3.7,2.1,3.3-15.3-2.2-29.6-6.7-45.1-7.2,3.3,7.3,8.4,12.3,13,17.7,1.8,2.2,4.6,1.3,7,1.3,50.1-.7,84.9,23.8,108.5,66.4,1.2,2.1,1.9,4.6,2.7,6.9,4.7,13.5,3.6,18.3-6.5,27.9,4.2,2.4,8.8.8,12.9,2.1,4,1.3,8.8-.4,13.5,3.6-7.1,5.2-13.5.5-19.6,0-6.7-.6-13.7-.1-21.4-3.2,4.3-3,8.4-3.8,11.1-7.8,3.4-4.9,5.9-10.9,3.9-16.9-10.3-30.9-32-51.1-60.7-64.6-12.2-5.7-24.9-10.2-38.8-10.1-9.2,0-16.2,2.1-22.5,8.2,16.7-5.2,31.6-4.9,46.9,2.2-6.1,5.4-10.4-.5-15-.8-5.2-.4-10.4.7-14.2,0,3-.5,6.9,1.4,12.5,3.6-15.7,1.8-30.1-2-45.8,1.2,4.8,3.7,9,5.7,13.3,7.8,22.3,10.5,42.1,24.2,55.3,45.4,7,11.2,12.1,23.3,10.5,37.4-.7,6.6-4.1,8.7-11,9.5,9.7-12.4,5.7-23.7-.3-35.1-9.6-18.2-23-32.6-41.1-42.7-10.5-5.8-20.2-13-31.7-17.3-10.1-3.8-19.9-3.2-30.4-1.1-1.7-.7.9-3.8-1.7-4.5-2.7-.4-1.5,3.5-5.5,3.3-2.5-.6-4.7-3.9-6.9-6.9-9.5-12.4-16.2-26.2-18.7-41.7-1.8-11.8.9-22.5,12.1-29.7-6.6-1.1-10.7.8-13.9,6.8-6.8,12.8-8,26.3-3.7,40,4.7,15,14.1,27.3,25,38.4,3.4,3.4,6.9,4.3,11.1,1.8,9-5.5,18.6-5,28-1.9,28.6,9.5,51.7,26.6,68,52.2,5.4,8.5,7.9,18,7.3,28.3-.2,4.7-2.2,7.7-6,10-7.5,4.5-12.3,2.8-13.7-5.8-3.5-22.8-13.7-42.2-29.1-59-12.6-13.8-28.2-20.5-46.9-19.8-4.7.2-9,1.3-13.2,4.3,27,13.4,44.7,35.3,61.3,59-5.6,3.5-8.2,1.7-10.8-2-11.3-16.2-24.5-30.8-41.3-41.1-9.2-5.7-17.9-13.5-30-13.4-5.6,0-11.1-.4-14.9,4.9-.6-.7-1.3-1.4-1.2-1.4,4.2-5.2,2.7-9.5-.4-15-11.9-20.8-25-40.8-39.4-60.5,4-5,6.7-3.5,9.7,1.3,7.1,11.4,13.8,23.1,22.5,33.8,2.6-11.2-2.1-19.5-8.7-27.5-5.6-6.8-10.4-14.2-15.4-21.5-1.3-1.9-3.1-3.8-2.6-8.7,7.8,10.3,14.6,19.2,21.8,28.6,3.9-5.1,3.4-11,6.3-15.7,1.7-2.8-1.3-4.4-3-6.1-9.3-9.5-20.5-16.7-31.3-24.2-2.9-2-5.8-3.8-8.2-6.4,2.3-3.8,4.5-1.8,6.5-.6,11.6,6.9,21.6,16.1,32.9,23.5,1.4.9,2.6,2.1,4,2.9,3,1.8,5.3,0,7.3-1.9,2.3-2,.8-4.1-.7-5.7-3.1-3.5-6.1-7.1-9.6-10.2-15.7-13.6-28.2-31-48.1-39.4-.4-.2-.5-.9-1-1.8,6.5,0,11.8,2.8,16.7,6,16.4,10.8,30.6,24.3,44.7,37.9,3.4,3.3,6.2,4.4,11.1,4.8,15.2,1.2,31-1.5,45.3,5.9,3,1.5,5.8,3.1,8.2,5.5-.4.3-.7.7-1,1.1ZM930.4,839.6c-5.3-7-10.6-13.9-15.9-20.9-.4.3-.8.7-1.2,1,5.8,6.5,8.7,15.5,17.1,19.8Z"/>
          <path class="cls-2" d="M1067,746.6c-8.2-1-15.1-.2-21.9-.5-6.5-.3-12.6,6.2-19.8,1,2.8-3.3,5.5-5.6,9.6-6,20.9-1.9,41.8-2.2,62.5,2.2,2.7.6,6.1.8,7.8,4.9-9.6,1.9-19.1,2.5-28.4,4.4-19.6,4.1-39.8,5.6-59,11.7-1,.3-2.2.3-3.3.3-2.1,0-4.7,1-5.4-2.1-.7-3.3,1.5-4.3,4.2-4.9,8.3-1.6,16.6-2.9,24.8-4.8,9.1-2.2,18.5-2.6,29-6.2Z"/>
          <path class="cls-2" d="M980.8,767.4c2.4-.9,3.7.8,4.7,2.3,6.2,9.7,7.9,19.8,2.3,30.4-3.2,6.2-8.7,8.5-15.8,7.9,7.7-4.9,14.3-10.5,11.8-20.6-1.8-7.2-4-14.5-11.8-18.4-1.4,3.7,1.4,4.5,2.7,5.9,2.9,3.2,4.4,7,5.6,10.9,1.9,6.4-.8,13.9-5.3,14.5-5.2.7-12.1-5-12.4-11-.2-7.2-2.9-10-10.2-8.6-3.7.7-6.3-1.8-7.7-5-1.7-3.7-1.6-7.5,1.3-10.8,2.5-3,5.7-3.1,9-1.6,4,1.8,7.9,3.6,12.1,5.5,2.1-1.6,3.8-3.5,4.1-6.8-4.6-4.3-11.2-4.5-17.9-7.6,8-4.1,13.4,3.1,19.6,1.5h-.2c-.9,3.2,2.8,3.1,3.8,5,1.3,2.3,5.3,2.8,4.5,6.5-4.4,1.6-2.1,3.3-.1,5.1,2,4.1,4,8.1,7,13.9-2.1-6.2-.8-11.9-7.1-13.8,1.4-1.7-.7-3.6.2-5.3ZM974,793.8c1.8-.4,2.2-1.5,2.4-2.5,2-12-14.4-27.8-26.4-25.4-1.7.3-3.3,1-3.5,2.9-.3,2.5,1.5,3.2,3.5,3.6,10.8,2.4,17.8,8.9,21.3,19.4.4,1.1,1.2,1.8,2.7,2.1Z"/>
          <path class="cls-2" d="M1049.4,830c7.8-7.7,11.9-8,20.8-1.8,4.1,2.8,8.6,4.8,12.8,7.4,14.2,8.8,23.6,21.9,32.1,35.8,1.5,2.5,2.1,5.6,2.8,8.6.5,2,1.4,4.6-1.9,5.3-2.6.6-4-.7-4.9-3.2-2.6-7-7.1-13-10.9-19.3-7.2-11.7-17.9-19.9-28.5-28.2-3.3-2.6-9.2-1.2-10.9-6.9-.2-.7-2.5,0-3.8.6-2.4,1.1-4.7,3.1-7.7,1.8Z"/>
          <path class="cls-2" d="M1090,772.8c20.5,2.8,40.5,7.9,59.8,15.3-19.7-6.6-41.5-3.9-60.8-12,.3-1.1.7-2.2,1-3.3Z"/>
          <path class="cls-2" d="M933.6,757.6c1.3,2,2.8,3.2,1.9,5.9-4.3,13-1.2,22.9,9.8,31.5,4.3,3.3,8.8,6.3,12.8,10-13.4-4.6-23-13-28.7-26.5-3.5-8.4-2.5-14.8,4.1-20.8Z"/>
          <path class="cls-2" d="M1247.6,859.9c-11.8-13.7-27.3-22.3-41.9-32.2,17.8,5.7,31.5,16.9,41.9,32.2Z"/>
          <path class="cls-2" d="M1222.2,805.8c6.1.6,9.2,5.6,12.8,9.5,10.2,11,19.1,23,25,37-12-16-23.5-32.4-37.7-46.6h-.1Z"/>
          <path class="cls-2" d="M976.6,755.2c3,2,5.5,1.3,8.2-.8,3.4-2.6,7.1-4.8,10.6-7.1,2.2-1.5,4.7-2.4,6.4.3,1.6,2.6-.8,3.8-2.6,5.1-4.9,3.5-9.8,6.9-15.5,10.9-2.6-2.3-5.4-4.8-8.2-7.3.3-.4.7-.8,1-1.1Z"/>
          <path class="cls-2" d="M1233.1,863c-8.2-3.5-16.2-7.3-22.6-13.8,8.7,2.6,16.4,6.9,22.6,13.8Z"/>
          <path class="cls-2" d="M1001.9,942.5c4.1-4.4,6.2-8,7-12.4.3-2,1-4,3.6-3.5,2.7.5,3.4,2.8,3,5.1-1.3,6.6-5.1,10.4-13.5,10.8Z"/>
          <path class="cls-2" d="M1248.5,851.8c-7.6-8.6-14.7-16.7-22-25,7.9,3.9,19.9,17.3,22,25Z"/>
          <path class="cls-2" d="M1012.5,909.1c-4,8.2-4.1,8.3-11.5,3,2.9-4,6.2-5.7,11.5-3Z"/>
          <path class="cls-2" d="M981.9,946.8c5.3,1.7,9.4-5.8,16.3-1.8-6,1.7-10.8,3.5-16.3,1.8Z"/>
          <path class="cls-2" d="M1222.3,805.6c-2.7-.8-4.2-3.1-5.9-5.1,2.2,1.4,5.3,1.8,5.7,5.2h.2Z"/>
          <path class="cls-2" d="M639.4,678.6c5.2,1.6,10.2,1.5,14.1,5.4-3.4,1.7-6.2-1.2-9.7,0-.3,3.7.3,7.6,4.4,8.4,18.9,3.8,35.3,13.8,53,20.4,24,8.8,47,20.1,69.9,31.3,1.2.6,2.4,1.1,4.5,2.1-.5-6.2-3.9-9.3-8.6-11.2-27.8-11.3-52.6-28.9-81-39-.8-.3-1.4-.8-1.7-1.7,11.8,2.3,22.5,7.4,33,12.7,17.4,8.8,34.9,17.6,53.2,24.4,8.5,3.1,18.8,21,17.7,31.5-9.7-9.3-21.3-14.1-32.2-20.2-20.5-11.5-42.4-19.7-64.2-28.2-9.5-3.7-19.1-7.2-28.5-11.2-2.8-1.2-5.7-2.2-8.6-2.7-11.6-2-16.3-8.2-15.4-22.2Z"/>
          <path class="cls-2" d="M690.7,844.3c-2.5,3-4.2,2.4-5.8,2.7-3.9.9-8.8.9-8.1,6.9.7,6.2,6.2,10.1,12.2,8.7,23-5.3,45.5-12.3,68.2-18.6,11.3-3.2,22.8-6.1,34.3-8.6,2.5-.5,5.6-.5,6.6-5-21.9,4.7-42.7,13.4-65.3,12,11.1-6.1,23.7-6.9,35.5-10.3,11.7-3.3,23.4-6.9,35.3-10.4,1.4,3.7.5,6.9.4,10.1,0,4.8-2.4,6.5-7.1,8.1-28.5,9.7-58,15-86.8,23.3-6.9,2-14.1,2.7-20.9,4.6-6,1.7-9.1-.2-11.6-5.6-2.3-5-4.9-10.3-1.9-14.9,2.9-4.4,8.8-2.5,14.9-3Z"/>
          <path class="cls-2" d="M876.8,878.1c-.3-9-1.9-16.4-4.6-23.6-3-8.2-6.9-16.1-8.6-24.9-1.7-9-7.4-15.9-15.3-21.2,1.8-1.5,3.1-2.5,4.5-3.6.6-3-4.7-1.9-3.8-5.1,5.6-2.1,10.7,1.8,11.9,9.1.1.8-.5,2.2-.2,2.3,10.4,6,6.9,19.3,14.3,27,3.5,3.7,4.5,8.7,5.6,13.5,2,9.1,4.2,18.2,6.2,27.3.8,3.8.8,7.6-1.7,12.3-11.2-4.6-23.3-6.5-34.9-10.4-2.3-.8-3.8-2.7-3.4-5.1.6-3,3.4-2.2,5.5-1.9,7.8,1.2,15.6,2.6,24.5,4.2Z"/>
          <path class="cls-2" d="M686.3,892.3c2.1-2.3,4.9-2.1,7.6-2.2-1.1,4.4,4.9,10.3,9.8,8.4,15-5.8,30.8-9.2,45.5-15.3,0-2.7-2.7-2.3-3.4-4.7,5.9,1.5,6.9-4.9,11-6.4,13.9-5.1,28.1-9.3,41-16.3.6.7.9.9.9,1.2q1.8,13.3-11,18.3c-20,7.7-40,15.4-60.1,22.8-6.4,2.4-13.2,4-19.9,5.4-6,1.3-17.3-4.9-21.4-11.1ZM794,867.4c-.4-.7-.8-1.4-1.2-2.1-12.8,4.5-25.7,9.1-38.5,13.7.3.7.5,1.5.8,2.2,13-4.4,26.4-7.8,38.9-13.8Z"/>
          <path class="cls-2" d="M655.8,782.4c10.6,10,23.5,5.5,35.3,6.1,33.8,1.8,67.6,3.7,101.2,8.6,1.9.3,3.8.7,5.8-.2,2.2-1.7.2-4.8,2.4-7.3,3.3,4.8,2.6,9.6,1.7,14.8-7.1,1-14-1.3-20.3-2.5-30.5-6.2-61.3-6-92.1-5.5-5,0-10-.4-14.9,0-10.3,1-15.6-5-19.1-14Z"/>
          <path class="cls-2" d="M523.2,800.3c.5-8.6-4.1-15.4-.8-24.4,2.7,16,8.3,29.5,12.9,43.3-5.7-.4-7.1-6.4-12.5-6.9-.2,5.1,4.4,8.2,3.8,13.1-12.1-13.1-20.6-28.1-25.4-45.4,7.3,6.2,12.6,14.3,21.9,20.2Z"/>
          <path class="cls-2" d="M613.7,825.5c3-3.7-1.1-5.1-2.6-6.9-7.6-9.2-14.3-18.8-17.2-30.7-2.5-10.6.2-19.3,8.8-25.5-9.8,15.1-3.2,27.3,4,39.2,3.6,5.8,8.1,11.1,12.7,16.2,3.3,3.7,4.3,7.8,5,12.5-5,.3-5.3-7.5-10.8-5h0Z"/>
          <path class="cls-2" d="M852,847c-.9-6.3-6.5-9.5-9.6-14.3-1.7-2.6-1.6-4.1,2.1-3,.5.5,1.1,1.3,1.8.6.6-.7,0-1.4-.7-1.8-.3-3.3-3.1-5.3-4.3-8.2,5.7,2.8,8.1,8.8,12.8,13.9.6-6.3-4.6-9.2-5.8-15.6,4.5,3.2,6.2,6.7,8,10,2.2,3.8,4.5,7.8,4.6,12.3,0,4.2,1,8.1,2.8,11.8-7.2,4.4-7.7-4.2-11.7-5.6h.1ZM859.4,851.7c.2-.2.5-.3.5-.5,0-.2-.3-.4-.4-.6-.2.2-.5.3-.5.5,0,.2.2.4.4.6Z"/>
          <path class="cls-2" d="M708.3,775.6c27.5,3,55,6.1,82.2,11.5-5.6,1.6-10.8-.9-16.2-1.4-20.2-1.9-40.4-4-60.5-7.2-2.3-.4-4.3-.5-5.4-2.9h-.1Z"/>
          <path class="cls-2" d="M438.7,701.4c9.6,12.5,20.2,23.9,32.1,34.5-4.8.7-5,1-18-14.2-5.3-6.2-12.5-11.4-14.1-20.3Z"/>
          <path class="cls-2" d="M564.9,695.3c11.8,8.5,23,17.8,32.2,29.3-11.8-8.5-22.5-18.3-32.2-29.3Z"/>
          <path class="cls-2" d="M465.5,819c-12.7-9.4-22.5-26-19.8-35.2,6,13.1,12.2,24.6,19.8,35.2Z"/>
          <path class="cls-2" d="M456.5,783c4.1,7.1,6.2,14.8,7,24.4-6.5-7.9-10.6-15-7-24.4Z"/>
          <path class="cls-2" d="M683.9,646.7c9.6,4,14.8,12.5,20.5,20.6-8.2-5.4-12.9-14.4-20.5-20.6Z"/>
          <path class="cls-2" d="M706.9,888.5c10-3.8,20.6-5.5,31.3-9.7-5,4.6-23.4,10.4-31.3,9.7Z"/>
          <path class="cls-2" d="M851.9,846.9c-4,3.8-3.5,8.2-1.7,13-4.9-3.9-7-8.9-8-14.5,4.1-2.4,6,4.4,9.8,1.6h-.1Z"/>
          <path class="cls-2" d="M708.4,775.6c-5.2-1.9-9.5,2.9-15,1.8-4.7-1-9.7-.2-14.7-1,9.7-2.9,19.7-.3,29.5-.8h.1Z"/>
          <path class="cls-2" d="M558.2,805.1c7.7.8,13.2,5.3,19,9.4-.4.6-.7,1.3-1.1,1.9-6-3.8-11.9-7.5-17.9-11.3Z"/>
          <path class="cls-2" d="M688.2,675.9c-2.9-5.3-8.4-8.9-10.4-16.2,6.8,4.4,9.5,9.8,10.4,16.2Z"/>
          <path class="cls-2" d="M490.6,804.3c-2.4-2.1-4.9-4.1-7.3-6.2,4.7-.6,5.7,3.2,8.4,4.9-.4.4-.7.8-1.1,1.2Z"/>
          <path class="cls-2" d="M942.2,672.4c2.4-10.7,30-44.2,38-45.9-12.8,15.1-25.8,30.2-38,45.9Z"/>
          <path class="cls-2" d="M546.2,604.3c0,3.5-1.7,6.1-3.9,8.8-9.7,11.9-24.1,15.9-37.1,22.1-2,.9-4.5,1.1-5.8-1.4-1.1-2.2.5-3.6,2.1-4.8,10.4-8.1,18-19.2,28.8-26.9,2.5-1.8,4.6-3.9,7.8-4.5,5.9-1.2,8.3.8,8.2,6.7ZM522.6,615.2c1.5.2,2.4-.4,2.7-2-1.5.1-2,1.1-2.5,2.2-.5.6-1.1,1.2-1.7,1.7-1.8,1.3-3.5,2.6-5.3,3.9,2.8-.2,5-1.1,5.2-4,1.3.1,1.7-.6,1.6-1.8ZM531.4,609.1c-1.8-.8-3-.4-3.3,1.8,1.6.1,2.2-1,3.1-1.9.8-.6,1.7-1.3,1.4-2.6-1.7.4-2.2,1.2-1.2,2.7Z"/>
          <path class="cls-2" d="M515.4,606.1c7.3-6.7,13.3-12.8,22.1-14.9,12-2.8,18.2,2.9,16,14.9-.3,1.9-1,3.7-1.7,6-3.2-2.4-1.6-5.1-1.5-7.5.6-8.6-2.6-11.5-11.1-10.5-6.1.7-10.4,4.6-15.1,7.8-2.3,1.5-4,4.3-8.8,4.1Z"/>
          <path class="cls-2" d="M184.8,917.4c-5.7-.2-10.4-.3-15.9-1.6-.8-.2-1.9,0-2.1-1.9-.3-2.2.7-2.8,1.6-3.2.5-.3,1-.8,1.6-1,1.6-.7,3.3-2.1,3.1-5.4-.2-3.4-2-5-3.7-5.9-2.2-1.2-4.6-1.3-6.9-1.4-18.6-1.1-35.5-4.8-54-3.9-3.3.2-7.2-.2-13.8.2-.8,0-.8.7-1.3,1.6-.3,1,.8-.1,1.3.2h2.4c.6,0,1.7.8,2.3.7,7.2-1.4,12.2,2.3,19.5,2.2,11.9-.1,23.9-.5,35.8,2,4.3.9,8.8.3,13.2,3.9-1.4,2.7-3,4.3-4.6,6-1,1.1-1.8,2.3-1.6,4.8.3,2.6,1.3,3.8,2.6,4.5,3.2,1.6,6.4,2.3,9.7,2.3,3.2,0,6.4-.3,9.7-.4"/>
          <path class="cls-2" d="M1301.2,891.8c0-2.4-.2-4.1,0-5.7,3-16.4.6-32.5-4.1-48-9.7-32-23-62.4-43.8-89-21.1-27-43.6-52.6-74.9-68.5-17.8-9-36-16.6-56.6-15.9-3.4.1-4.7-1.3-5.9-4.3-4.8-11.5-6.6-12.4-18.8-10.2-4.9.9-9.6,2.2-14.4,3.5-3.4.9-6.1,1-8.5-2.6-2.7-4,0-6.3,1.9-8.6,7.9-9.5,7.3-12.2-4.1-16.9-4.1-1.7-8.4-2.7-12.8-2.8-4.7-.1-9.4,0-14.6,0,3.8-8.3,9.6-14.3,14-21.2,5.2-8.2,3.2-13.3-6.2-15.9-8.1-2.2-16.4-1.4-24.7-1.3-6.8,0-12.2-1.8-16.6-7.3-20.2-24.9-43-47.1-68.3-66.7-3.5-2.8-5.4-5.2-5.5-10-.2-10.1-4.9-17.1-15-17.6-12.8-.7-21.8-8.5-32.4-13.2-10.3-4.6-19.9-10.3-30.3-14.8-9.9-4.3-20.6-7.2-29.7-13.4,2.6-4.8,5.4-8.7,8.7-12.5,7-7.8,13-16.4,17.4-26,8.8-19.4,10.4-39.2,3.1-59.4-6.5-17.9-18.7-31.4-32.7-43.7-13.7-12-29.3-20.8-46.1-27.8-9.7-4.1-20.1-5.3-30.2-7.3-5.6-1.1-9.6-6-15.2-5.6-4.8.4-6.8-1.7-8.4-5.8-8-21.2-20-39.7-37.1-54.7-.8-.1-1.3-.6-1.3-1.4l-.3-.3c-.5-.4-1.1-.8-1.7-1.3h-.1c-3.9-1.2-6.6-4.2-9.7-6.7h-.2c-3.6-1-6.7-2.9-9.8-4.9-10.6-2-20.4-7.5-31.5-7.6-3,0-4.2-2.2-5.1-4.6-6.4-17.9-9-36.3-5.9-55.2,1.4-8.2-.2-11.4-8.3-13.8-11.7-3.4-22.8-7.2-32-16-7-6.8-16.3-8.4-25.4-4.8-25.8,10.3-40.9,29.7-45.2,56.8-.8,5.1-2.4,6.6-6.3,6.5-6.4-.3-11,2.8-15.6,6.4-10.4,8.1-17.7,18.5-24,30-15,27.2-25.5,55.9-31.4,86.4-1,5.3.1,10,2.7,16.3,2.8-6.7,3.5-12.4,6-17.6,8-17,18.9-32.3,29.9-47.4,7.8-10.7,16.7-20.5,28.3-27.3,1.8-2,3.6-4,5.4-6-2.3-3.4-6.5-4.4-8.5-8.7,5.9.8,10.4,1.3,9.6,8.9-.4,3.9,1.5,8,1.9,12,.3,3.1,2,6.5-1.7,8.9-21.7,26.4-39.1,56.1-61.8,82,26.5-14.6,46.6-36.6,67.5-58.5,5.4,10.2,6.1,21.8,14.1,31.4.6-13.4.1-25.5,1.7-37.5.7-5.1,2.6-8.3,7.4-10.8,13-6.5,26.6-11.8,40.1-17.4,2-.8,4-1.2,6.4-.1-.8,1.2-1.5,2.4-2.4,3.5-12.8,14.9-23.9,30.8-31,49.3-2.7,6.9-6,13.6-9,20.3-.6,1.3.3,3.5-2.5,3.1-7.8-1-12.8,3.5-17.3,9,.2,17.7,9,45.4,17.5,53.3,0-8.7,10.3-9,12.1-16.8,2.6-11.4,9.1-21.5,16.2-30.3,6.9-8.6,12.2-19.4,24.4-23.2,8.8-2.7,11.7-3,18.7,3.7.5.5,1.4.6,2.2.9.9-7.3-8.4-13.2-16.8-11.2-8.2,2-14.4,7.2-21,12,0,0,0,.2-.1.2-.1,0-.2.1-.3.2-4.2,5.2-8.5,10.5-12.7,15.8,0,.2-.2.4-.3.6,0,0-.2.1-.2.2-1.9,7.7-8.1,13.2-11,20.4,3-7.1,4.9-14.9,11-20.4,0-.1,0-.2,0-.3.1-.2.3-.3.4-.5,2.7-6.5,6.1-12.4,12.7-15.8,0,0,.2-.2.2-.3,0,0,.1,0,.2-.1,5.6-14,25.6-20.5,40.3-13-5.8-12.6-20.5-15.2-30.9-5.6-10.3,9.6-18.5,21-26.7,32.4,2.3-7,6.8-12.9,11-18.7,4.6-6.4,10-12.2,14.9-18.3,7.5-9.2,24.5-13.1,30.8,2.3.8,2,1.9,4,4.5,4.5,3-2.1,3-5.6,4.3-8.6,6.4-14.2,16.7-15.4,30.6-8.8,25.2,12.1,38,34.7,52.8,56,2.8,4,4.6,8.6,7.2,13.6,7-4.8,4-12.5,6.3-18.3.3-.8-.8-3-.7-3,10.1-3.2.9-9.2,2.3-13.9,1.8-1.6,3.6,1.2,5.3,1.2,2.2-3.1.7-7.1,4.8-10.4,2.7,8.7,1.9,16.6,0,24.4-1.7,7.4-6.1,13.8-9.5,20.6,15.9-6.6,20.4-21.1,25.4-35.4,0,9.1-2,13.4-10.2,25.4-5.4,7.9-14.5,12.7-18.8,21.6,3.3,4.5,7.6.9,11.3,1.7,0,0,0,0,0,0,0,0,.1,0,.2,0,2-4.5,7-3.9,10.4-6-2.8,3.1-5.9,5.8-10.4,6,0,0,0,0,0,.1,0,0-.1,0-.2,0-.8,1.3-1.6,2.5-2.6,4.1,3.4,2.4,6.3-1.9,9.3-.5,2.4,1-1.8,3.4,1,4.4,3.2.9,5.6-3.7,9-1.4h0c0,0,0,0,.2-.1,0-.4,0-.7.1-1,.3.1.7.3,1,.4-.4.2-.8.4-1.1.6,0,0,0,.1,0,.2,0,0,0,0-.1,0,.4,3.5,3.4,3.9,5.8,5,10.3,4.7,20.9,7.7,33.4,4.2-2.6,3.8-6.2,2.5-7.6,4.5,22.9,6.5,41,20.2,52.9,40.1,11.6,19.4,11.3,30.3-6.7,51.1-4.5,5.2-10.3,9.1-15.8,13.3-3.1,2.4-5.8,2.6-8.5-.8-14.9-18.5-32.9-33.8-50.5-50.5,4.1-1.9,6.6-.1,9.4,1.4,2.6,1.5,4.7,3.8,8.7,4.4-.4-5.4-6.2-7.9-6-14.5,6.4,4,14.8,1.6,17.3,11.8,1,3.9,7.2,3.3,11.7,3-2.2-12.9-40.5-39.4-53-36.9,2.3,5.2,8.5,4.7,11.7,8.3,1.5,1.8,4.5,2.2,2.6,5.5-1.5,2.7-3.4,2.8-6.2,1.6-6.9-2.8-13.8-5.5-20.8-7.9-3-1-6.3-2.2-10.2-.3,2.6,6.6,9.1,9.2,13.8,13.1,32.3,27.2,61.8,57.2,88.3,90.1,13.5,16.7,25.6,34.8,33.1,55,11.1,29.7-.6,67.9-33.6,84.8-24.2,12.3-48,10.3-73.1,5.6-37.9-7.1-75.1-17.4-112.9-24.7-4.3-.8-8.7-1.3-13-2.2-10.5-2.1-21-2.8-31.5-7.5-10-4.5-20.4-8.4-30.6-13-15.2-6.8-30.9-4.6-45.9.8-26.9,9.6-49.7,25.9-70.5,45-4.5,4.1-9.2,4.5-14.4,4.3-13.6-.5-26.6-4-39.3-8.9-18.2-7-34.3-16.8-47.8-31.5-12.5-13.6-8.6-29,0-39.6,14.8-18.1,31.6-34.4,49.7-49.5,33.5-28,71-50,107.9-72.9,8.9-5.5,17.5-11.5,24.7-19.2,2-2.2,4.6-4.6,3-7.9-1.4-3-4.7-2.7-7.3-2.8-6-.2-11.9,0-17.9,0q3.6-8.4,18.5-13.5c-1.3-2.9-3.8-2.5-6.1-2.4-12.3.7-23.8,4-34.8,9.5-4,2-7.3,5.3-9.2,9.2-2.4,4.7-1.4,8.5,5.4,9.5,1.5-8,5.8-13.4,13.6-15.6.4-.3.9-.8,1-.8.8.5.6,1.2,0,1.8-2,5-5.7,9.3-7.2,15.5,10.3-2.4,19.9-6,31.3-3.7-4.1,5.4-9.3,8.5-14.2,11.6-9.2,5.9-18.9,11.2-28.4,16.7-2.2,1.3-4.3,2.3-6.5-.3-11.6-14-16.6-32.8-5.4-50.3,6.7-10.4,16.4-18,26.8-25.2,10.5-7.3,22.9-9.1,33.9-15.3-1.8-1.1-3.4-2-5-3,6.1-2.9,12.5-1.8,19.8-1.3-6.3-13.9-10.6-27.4-13-41.5-.4-2.6-2.4-4.2-4.9-5.1-3.6,2-7.1,4.1-10.7,5.9-23.1,11.7-44,26.2-59.2,47.5-16.7,23.5-19.1,48.4-5.1,74.5,4.2,7.8,10.9,13.6,15.4,20.6-1.4,2.8-3.5,3.7-5.3,4.9-21.3,13.7-41.9,28.4-61.5,44.5-19.6,16.1-38.4,32.9-54.8,52.4-11.7,14-13.3,29.3-5.1,43.5,3.5,6,8.5,10.8,12.8,17-6.5,6.5-10.7,14.8-17.7,20.6-6.3-1.6-9.3-7.3-14-10.8-11.1-8.3-23.6-12.3-37.9-11.4-25.1,1.6-42.7-12.9-45.7-36.4-1.2-9.8,3.6-19.6,12.2-20.6,10.7-1.3,18.6-8,28.1-11.5,6.5-2.4,8.1-7.3,5.7-14.2-.9-2.6-2.1-5-3.4-7.5-3.3-6.4-1.8-10,5.3-12,8.6-2.4,13.5-7.7,14.5-16.8,1.2-11.7-1.6-22.4-6.8-32.5-1.8-3.6-3.3-7.9-7.7-9.8,1.2,3.6,3,6.9,4.8,10.1,4.4,8.1,6.8,16.9,7.3,26,.7,11.8-3.2,17.6-14.6,20.5-5.1,1.3-6.6,4-7,8.6-.4,4.1,1.3,7.4,3.2,10.8,4.6,8.3,3.6,11.3-5.2,15.1-8.6,3.8-17.2,7.2-26.6,8.4-5.7.7-10.8,3.3-12.5,9.3-5.6,19.5,1,41.4,19.4,51.4,10.3,5.6,21.2,7.3,32.6,7.1,13.1-.2,24.2,4.8,33.8,13.2,8.5,7.5,8.5,10.4,2.7,20.2-1.6,2.7-3,4.3-6.3,3.9-5.2-.6-9.8,1.2-14,4.1-4.8,3.3-9,3.1-13.4-.9-3.9-3.5-8.2-6.5-12.1-9.9-6.1-5.4-12.3-5.4-19.8-2.2-6.7,2.8-12.9,7.7-20.8,7.3-3.3,0-6.6-.4-9.9-.2-6.1.3-11.1-2.1-14-7.1-9.4-15.9-24.1-23.5-41.3-27.6-8.2-1.9-8.9-3-6.3-10.7,2.2-6.4,1.1-10.8-5.5-13-12.2-4.1-22.7-11-32.1-19.7-1.3-1.2-2.8-1.8-4.3-.1-.4,2,1.1,2.8,2.3,4,8.7,8.3,18.7,14.4,30,18.3,4.9,1.7,6.9,4.6,5.9,10-2.3,12.2-1.5,13.3,10.9,16.2,15.3,3.6,28.2,10.3,36.9,24.2,2.6,4.2,5.7,9,12,8.9h.4c1.9-.3,3.6,0,5.2,1.2,12.2.4,23.1-4.1,34-8.9,4.8-2.1,9.3-2.6,13.5,1.8,4.2,4.3,9.1,8,13.5,12.1q8,7.6,17.4,1.8c3.2-2,6.4-5.4,11.5-1.9-10.7,18.6-17.5,38.7-25.3,58.3-3.3,8.5-8.4,14-16.8,16.7-7.6,2.5-15.4,4.2-22.9,7-9.3,3.4-11.4,9.9-7.4,19,2.1,4.9,6.6,8.4,9.2,14-7.5,1.1-14,1.9-20.5,3.1-25.6,4.8-22.6,1.3-27.6,26.7-2.1,10.9-6,20.3-12.1,29.3-5.3,7.8-11.5,14.9-17.9,21.8-3.5,3.8-7.4,7.5-10.5,11.7-2.9,3.8-5.1,8.2-8.7,11.4-3.3,2.9-7,5.3-9.9,8.6-3,3.5-4.4,8-7.4,11.5-5.1,5.7-12.3,8.6-20,8.5-10.5-.2-17.7-.3-28-.4-.2,0-.5,0-.7,0h0c-1.3,0-2,.6-2,1.2s0,1.6,1,1.9c.3.1.7.2,1,.3h0c57.6,2.1,111.6,4.5,169.2,5.4,32.7.5,65.5,0,98.2-3.3,29.1-2.9,30.2-8.1,38.1-32,5.5-16.8,6.9-34.6,7.5-52.2.7-19.5,2.1-39.1,1.5-58.7,0-2.5.5-5.1,1.5-7.6,4,15.6,1.6,31.7,5.7,47.3v-40.5c5.1,1.1,6.2,4.2,6.4,8.5,1.3,23.4,2.7,46.7,4.7,70.1,1.5,17,6.9,32.7,12.4,48.6.9,2.6,3.8,3.3,5,5.1,12.5,18.7,32,14.2,49.5,14.8,13.4.5,26.9-1,40.4-1.7,2.8-.1,5.3-.2,7.9,1.3,16.5,9.9,33.2,19.5,52.2,24.2.4,0,.7.8,1.5,1.7-7.1,2.4-14.2,3-21.2,3.3-18.7.8-37.4,1.4-56.1,1.6-9.7,0-19.1,2-28.6,3.6-2.6.4-5.5,1.2-5.5,4,0,3.2,2.9,4.2,5.9,4.4,5.2.4,10.4.9,15.6,1.4.5,0,1.1,0,1.6,0,9.4.2,18,5.1,26.7,6.2,8.7,1.1,17.9-.5,26.8,2,2.3.7,5,.5,6.5,2.9-9.2,6.6-143.5,16.5-176.2,12.9.6-3.5,4.8-6.8,1.5-10.5-3.3-3.6-8-3.2-12.4-2.9-15.7,1-31.4,1.8-47-.8-2.4-.4-5.4,0-5.9-3.3-.5-3.6,2.5-4.4,5.2-5.2,1.6-.4,3.1-1.2,4.7-1.5,4.9-1.1,9.8-3.1,9.7-8.5,0-5.5-5-8.2-9.9-9.8-6.3-2.1-13-2.5-19.6-2.8-44.9-2.8-89.8-5.7-134.7-6.5l2,2.8c-3,1.5,4.1,2.1,7.1,2.1,34.4.7,68.9,1.1,103.1,6.1,12.4,1.8,25.3,1.2,37.4,7.3-4.4,4.3-9.2,6.7-14,9.4-3,1.7-5.6,3.6-5.1,7.6.4,4.2,3.1,6.3,6.7,7.5,9,2.9,18.2,4.3,27.6,4.5,9.3.2,18.6,0,28,0,.2,2,.5,2.8.3,3.5-2.2,8.7-1.2,10.3,8,10.3,14.9.1,29.8,0,44.6-.3,39.1-.5,78.2-1.5,117.2-5.6,7.9-.8,15.8-2.2,23.6-3.9,4.1-.9,9.3-1.3,9.8-7.1.6-5.6-3.7-8.3-7.7-10.7-8.4-4.8-17.9-5.9-27.2-5.7-7.4.2-13.9-1.2-20.7-3.6-5.6-2-11.7-2.7-18.6-4.2,7.9-2,14.8-1.9,21.7-1.3,28.1,2.5,56.1,1.3,83.9-3.8,3.1-.6,6-.7,8.8.9,5.6,3.3,11.2,2.8,16.4-.6,3.4-2.3,6.5-2,10.1-1,16.1,4.5,32.5,5.4,49.1,3.2,2.2-.3,4.6-.5,6.4-1.6,5.7-3.8,11-7,17.6-1.7,2,1.6,4.7-.1,7.1-.9,14.3-4.8,28.8-9.3,43-14.3,4.6-1.6,7.9-1,12.2,1.5,20.7,11.7,42.2,21.5,66.6,22.4,5.3.2,10.1,1.7,14.7,4.6,12.7,8.1,27,12.7,41.7,15.1,40.4,6.9,81.2,8.2,121.9,5.6,39.8-2.6,79.5-7.2,119.3-10.2,18.7-1.5,37.5-1.1,56.2-2.3,27.6-1.7,53.4-8.9,77-24,12.2-7.8,23.3-16.5,31.2-28.9,1.4-2.2,3-4.2,5.7-4.3,13.7-.1,27.4-1.8,40.9,1.2v-5c-13.2.4-26.3.7-39.7,0ZM510.4,154.8c-2.2,6-2.2,12.3-2.2,19.4-8.5-2.2-14.8-5.8-22.5-4.5.4,4.7,4.1,6,6.8,8.1,2.5,2.1,5.6,3.6,7.2,7.2-3.5,3.9-7.6,7.4-12.5,10.5-4.9-6.1-4.9-14.3-9-20.6-1-1.4,0-3.3,1.1-4.5,5.6-6.4,10.5-13.4,18.1-17.7,3-1.7,6-2.5,9.4-2.1,2.6.3,4.5,1.8,3.6,4.3ZM533.3,125.5c-2,2.3-4.7,3.5-8.7,5,2.7-4.8,2.6-10.4,9.5-9.8-.3,1.5-7.3,1.4-.8,4.8ZM532,117.9c-1.9-1.2-1.5-2.8-.9-3.8,7.5-11,15.7-21.2,27.7-27.8,7.8-4.3,11.8-3.5,19.2,3.9-4.6,1.1-8-2.2-12.7-1,5.8,5.6,13.2,6,20.8,10.1-7,0-12.4-.2-17.8,0-6.6.3-13.2.5-17.9,6.6-2.4,3.2-7.5,1.1-10.3,4.6,1.6.5,3,1,4.8,1.6-4.2,3-8.6,4.5-12.8,5.9ZM536.2,191.7c-1.9-9.1,1.2-12.9,8.3-14.7,13.5-3.4,27-3.7,40.7-.6-16.3,4.7-33.4,6.4-49,15.3ZM540.8,194.1c11.2-7.6,47-15.6,59.9-13-20.2,3.2-40.4,6.6-59.9,13ZM599.3,162.7c-17.2-5.9-33.8-13.3-53.4-15.2,8.5-13.5,20.3-19.4,33-25.9,7.4,13.4,14.6,26.4,21.8,39.5-.5.5-1,1.1-1.4,1.6ZM614.3,141c-1.8-7-2.4-14.2-1-21.3.7-3.3,0-5.3-3.3-6.3-9.7-2.9-19.1-2.7-28.5,1.6-8.6,3.9-16.3,10.8-26.8,7.8,6.1-2.8,13.9-3,19.4-7.5,6.8-5.5,16.1-5.9,22.5-11.9.6-.6,2.1-.5,3-.2,4.5,1.2,9,2.4,13.5,3.9,3.7,1.2,5.1,4.2,4.3,7.8-3.9,17.9-1.3,35.4,3,52.9-5.7-6.5-5.5-16.3-12.4-22-2.4-.8-3-2.7-3.1-4.9,0,0,0,0-.1-.1,0-.1-.1-.2-.2-.3-.2-.1-.4-.2-.6-.4.2,0,.3,0,.4,0s.2.2.2.3c0,0,.2.1.3.2,0,0,0,.2,0,.3,1.5,1.3,3.4,2.2,3.7,4.4,4.4,1.7,7.1,1.7,5.5-4.4ZM624.1,183.8c-6.8.5-13.1,3.5-19.6,5.9,12.3-8.4,26-8.5,39.7-8.4,0,.8.2,1.6.3,2.4-6.8,0-13.6-.4-20.3.1ZM751.5,324.1c-.2,0-.4-.5-.4-.5.9-.9,1.9-.6,4.2.5-2.3,0-3.1,0-3.8,0ZM760.7,288.7c-3.9,4.2-7.4,8.8-12.1,12.2-1.4,1.1-2.6,2.8-5.8,2.7,10.3-8.7,19.8-17.3,18.6-32.2,5.5,7.5,4.8,11.3-.7,17.3ZM811.9,301.4c-10.4-7.1-21.2-13.8-33.2-18.1-2.6-.9-5.9-2-5.9-7,11.5,0,19.3,7.5,28.2,11.9,21.9,10.6,38.4,27.5,49.9,48.7,8.1,15,11.6,31.2,6.7,48.2-.6,0-1.2,0-1.8.1,0-5.8.5-11.6,0-17.3-3.3-29.5-20.2-50.4-43.8-66.5ZM456,339.7c0,0,.1-.2.2-.2,0,0,0,0,.1,0-1-2.7,1.9-3.3,2.8-4.9,0-.1,0-.3,0-.4.1,0,.2,0,.3,0,14.1-19,33.5-30.7,55-39.1-5.5,5.7-13.5,7.3-19.9,11.6-10.1,6.7-19.8,13.7-28.4,22.4-2,2-3.6,4.7-6.8,5.1,0,0-.1.1-.1.2,0,0,0,.2-.1.2.1,2.2-1.2,3.6-2.8,4.9,0,0,0,.1,0,.2-.1,0-.2,0-.3.1-3.4,5.1-6.9,10.3-10.3,15.4,1.7-6.4,2.7-13.2,10.3-15.4ZM952.9,530.8c17.2,16,32.6,33.7,45.7,53.1,8.6,12.8,19.5,14.8,32.8,12.7,5.2-.8,10.3-1.7,16.2,1.5-7.2,10.5-11.4,22.1-16.6,33.6-3.8-2.9-2.2-5.3-.9-7.1,2.6-3.4,3.1-7.7,5-11.3,1.2-2.2,1.4-4.3-.2-6.1-2.1-2.3-4.8-1.4-6.8,0-4.6,2.9-9.1,6.1-13.5,9.4-16.8,12.6-30.7,28.4-45.3,43.3-9.2,9.4-17.9,19.2-26,29.8-8.8,11.5-12.5,13.2-23.5,6.4,6.3-7,5.2-15.2,4.5-23.8-.7-7.9,6.6-12.7,11.1-18.2,15.2-18.5,30.9-36.6,46.3-54.8,1-1.1,2.7-2.3.4-5.4-21.2,21-38.8,45-59.2,67.3-3.1-4.3-2.7-7.4,0-11,13.7-19,28.5-37,44.4-54.2,4.7-5.1,9.8-10.2,9.5-18.5-24.7,12.6-38.4,35.5-53.2,57.3,6.4-3.2,9.4-9.8,16-13.1-6.8,8.5-13.6,17.1-20.5,25.8-4.2-3.8-1.7-7-.1-10,9.2-17.3,16.3-35.5,22.6-54,.9-2.7,2.7-5.4-.2-9.5-9.8,19.5-15.2,40.4-27.4,59.2-6.7-12.8-12.8-24.5-18.9-36.2-1.1-2.1-1.1-4.3,0-6.3,4.9-9.5,3.2-18.1-3.3-26.1-1.6-1.9-1.5-3.8-.7-6.1,5.7-16.7,11.7-33.3,21.7-48,1.7-2.5,3.5-4.9,6.8-6.6,11.8,8.2,23.2,17.1,33.9,27.1ZM1022.3,636.7c-14.5,8.7-29,17.4-43.5,26.1-.4-.7-.8-1.3-1.2-2,10.5-9.2,21-18.4,31.5-27.5,6.7-5.7,7.3-5.5,13.2,3.4ZM903.5,680.9c7.8-1.9,8.9-3.9,6.4-11.6-7.3-22.4-15.5-44.5-25.3-65.9,1.6-1.8,3.4-1.5,4.2.2,12.2,24.6,25.8,48.7,26.9,77.1.4,9.3-1.2,10.4-10.3,10.7-7.8.3-12.7-.9-21.5-5.7,7.6-1.9,13.7-3.4,19.8-4.9ZM878.2,682.6c-1.7,1.4-5.4,1-8,.5-9.6-2.1-19.1-4.6-29.4-7.1,3-4.6,7.8-5.5,11.8-7.4,11.8-5.7,24.7-9,35.7-16.6,2.6-1.8,5.6-3,7.2,1.5,2.3,6.7,4.8,13.3,5.9,20.6-7.9,3.1-16.4,3.1-23.1,8.6ZM886.1,624.9c-5.6-2.3-4-6.5-4.8-11.2,3.4,3.9,4.6,6.9,4.8,11.2ZM841,491c-6.4-6.7-11.9-14.3-18.6-22.5,6.7-3.5,13.4-4.9,17.9-10.2,1.6-1.8,3.6-.5,5.3.3,19.8,8.9,40,16.9,57.7,29.8,3,2.2,5.3,2.4,8.8.1,8.2-5.4,12.5-3.2,15.2,6.7-1.6,1.8-3.1.4-4.3-.3-4.3-2.6-8.1-1.5-11.1,1.7-10.2,11-19,23-24.2,37.2-2.9,7.9-5.9,15.7-9.9,23.1,1.9-16.4,5.9-32.2,13.2-47.5-6.9.8-12.8,11.2-15.1,26.7-5.9-8.9-10.8-16.5-16-23.8-5.5-7.9-12.5-14.6-19.1-21.5ZM774.6,650.8c17.2-6.6,34.7-12.4,53.6-11.3,5.4.3,10.2-.9,14.6-4.4-1.5-3.3-5.3-2.8-9-5.8h29.5c.7-3.3-2.4-3.7-2.2-6.2,2.3-.9,6.4,2.5,7.7-2.5.8-3.1,2.3-6.2,5.8-7.9,2.7,1.5,2.3,4.6,2.9,7,1.2,4.5,2.1,8.4,7.2,10.8,5.3,2.5,5.3,6.8,1.4,11.6-2.6,3.3-5.9,5.9-9.8,7.3-15.3,5.7-28.8,14.9-43.2,22.2-2.8,1.4-5.3,2.7-9.1.8,13.2-11.9,30.3-17.1,44.6-27.5-13.7-9.6-60-4.6-98.7,9.9,1-3,3.1-3.4,4.8-4ZM822,666.8c-10.6,6.7-13.5,5.7-20.6-6.8,11.8,6.4,21.3-2.4,33.2-2.8-4.8,3.7-8.5,7-12.6,9.5ZM753.4,661.6c6.3-3.3,15.7,1,20.8,10.6-6.6-2.5-11.5-3.8-16.7,0-3.5,2.7-6.3-1.6-7.8-3.8-2.2-3.2,1-5.5,3.6-6.9ZM759.9,686.7c-6.7-2.8-12.3-7.2-17.2-12.5,6.6,3,12.1,7.5,17.2,12.5ZM738.2,634c0,.7,0,1.5,0,2.2.4,9,5.2,17.4,2.6,26.7-5-8.4-2.8-17.7-2.6-26.7,0-.7,0-1.5,0-2.2ZM725,624.6c-5.1,4.4-10.2,8.7-15.2,13.1,2.8,4.8,9.4,6.8,11.2,14.3-7.2-4.1-11.7-8.9-16.2-14.4,7.7-4.2,13.2-9.5,20.2-12.9ZM666.7,607.8c-2.7,4.5-.4,5.2,2,6.4,8.1,4,16.1,8,24.1,12.2,2.5,1.3,5.4,2.4,6.8,5.6-14.1-5.2-26.7-13.5-40.9-18.3,1.6-3.2,4.2-4.1,8.1-5.9ZM600.6,620.7c-1.7,8.6-5.6,16-9.5,23.6-1.3,2.6-3.4,4-6.5,4.5-10.2,1.4-20.7,1.3-30.3,5.7-.2,0-.8-.7-1.4-1.3,14.3-19.6,27.3-39.4,25-65.2,18.5,3.7,26,15.2,22.7,32.7ZM605.4,611.3c9.1,10.1,16.3,19.2,23,30.2-11.8,3.9-22.8,3.9-35.5,5.6,6.5-11.4,12.2-21.7,12.6-35.8ZM572.9,606.7c-5.9,17.3-14.3,33.3-26.8,46.9-3.7,4.1-8.2,4.6-14.8,5.4,19.2-20.7,36.8-40.5,40.1-69,3.6,5.6,3.4,11.5,1.6,16.7ZM414.3,627.4c-2.4,6.2-4.5,11.6-6.7,17.1-2-7.6.7-14,6.7-17.1ZM425.2,648.3c-8.5,4.1-15.5,7.1-19.9,14.4-3.1-1.9-5.6-2.5-6.8-5.4,6.9-6.7,14.3-11.7,26.6-9ZM331.5,618.8c3.8-4.4,7.8-8.6,11.9-13.1,2,2,3.7,3.5,3.3,5.8-1,5.7,1.1,10.8,2.1,16.2.6,3.3,3.2,7.1-2.2,8.7-5.2,1.5-10.6,4.2-15.3-1.1-4.8-5.5-4.7-10.8.3-16.6ZM319.1,628.1c1.5,3.1,2.4,5.1,3.4,7,5,10.6,10.9,13.7,21.7,8.7,11.2-5.2,21-4.5,31,2.1,5.4,3.6,11.5,6,18.7,7.4-3.6,6.5-10,5.1-14.6,6.9-4.9,2-7,9-13.6,7.4-1.8,2.6.1,5.5-.6,8.2-2.5-1.1-2.4-3.6-3.6-5.3-1.7-2.6-4.6-4.6-6.9-3-8.4,6-16.7-1.8-25,.3-2.5.6-3.3-2.3-4-4.4-2.7-8.1-6.3-15.8-11.6-22.6-4.6-6,.9-8.5,5.1-12.7ZM266,896.2c-1.8,1.4-4.2,1.2-6.4,1.2-41.3-1.3-82.5-2.7-124-4.1-.4-4.3,2.8-6.1,4.5-8.7,13.2-20.1,29-38.2,45.6-55.3,11.9-12.2,16.9-26.4,19.3-42.3,1.8-11.5,3.4-13.3,14.6-15.6,7.8-1.6,15.4-4,23.9-3.3-1.2,5.3-5.2,4.5-8.4,4.3-6.6-.5-12.6,1.2-18.4,3.8-1.9.8-4,2.4-3,5.1.7,1.9,2.3,3.1,4.6,2.7,16.3-3,32.9-2.7,49.4-2.7.8,0,1.5-.5,2.5-.8.7-4.1-2.8-5.6-5-7.5-8.9-7.5-16.2-16.4-22.2-26.2-4.7-7.7-2.9-11.1,5.9-11.9,5.8-.5,11.7-1,18-1.5-1.2,4-4,3.7-6.3,4.4-5.5,1.7-5.9,3.6-1.7,7.8,3,3,7,4.2,10.9,5.6,20.3,7,40.9,13.1,59.9,23.3,2.5,1.3,5.1,1.6,8.6,1.7-2.2-4.7-6-6.3-9.5-8-15.5-7.8-31-15.6-46.6-23.1-3.6-1.8-5.2-3.3-3.3-7.5,2.9-6.5,4.2-13.7,8.3-19.6,4.4-16.5,12.4-31.7,19.2-47.3,2.6-6,5.4-12,8.5-18.8,4.1,9.9,9.7,17.9,9.1,29.3-1.2,20.7,5.6,40.1,14,58.8,1.7,3.7,3.4,7.4,5.7,12.4-7.8-3.4-13-8.2-18.5-12.3-9.5-7-19-14-29.3-19.9-2.5-1.5-4.8-2.6-7.6-1.1-1.5,5.5,2.5,8.2,6,10.6,19.2,13.5,35.5,30.5,53.5,45.4,7.9,6.6,14.1,15.3,21.5,22.5-5.2,8.8-5.5,9-16.7,6.4-21.9-5.3-43.7-11.2-65.9-15.3-1.6-.3-3.2-.7-4.9-.8-2.9-.2-5,1.1-5.3,4-.3,2.9,2.1,3.6,4.4,3.9,14.5,2.3,28.4,6.8,42.6,9.9,7.1,1.5,14.2,3.8,22.3,6-5.4,5.5-11.7,6.8-17.1,9.6-31.8,16.3-65.1,28.1-100.1,35.1-10.6,2.1-21.2,3.4-32,2.5-2.7-.2-5.9-.4-6.6-3.8-.8-3.5,2.6-4.3,4.7-5.9,2.7-2.1,6.9-1.4,8.8-5.3-7.9,1.7-15.8,3.5-22.6,7.9-3.9,2.5-2.8,7.9,2,10.9,3.6,2.3,7.8,2.6,12,2.6,25.1,0,48.9-6.8,72.7-13.9,28.4-8.5,55.1-20.5,80.7-35.2,5.4-3.1,5.6-2.8,13.1,1.9-39.7,23.3-78.1,48-120.2,66.4,17-1,32.1-10,49.2-10.3-7.3,8.4-15.8,15.3-24.2,22.1ZM343.5,737c6.7,7.5,8.9,17.6,14,26.1-11.3-5-9.5-17.3-14-26.1ZM374.4,791.6c-14-12.8-28.8-24.7-42.4-37.7,14.6,12.2,32.3,20.8,42.4,37.7ZM362.8,838.1c-.4.7-.8.7-1,0,0-.1.2-.3.3-.5.2,0,.4,0,.5,0,.1.1.3.4.2.5ZM340.3,891.6c-9.8,1.2-19.4,4.1-29.2,3.1-1.7-3.2,2.3-5.2,1.1-8,0,0-.1,0-.2,0,0,0,0,0,.1-.1-.5.2-1.1.3-1.4.7-7.6,12.3-19.6,9.1-32.3,9.4,6.2-7.5,13-12,19.1-17.2,3.3-2.8,7-5.3,10.4-8.1,2.5-2,6.7-3.4,6.1-7.1-.6-4.6-5.9-.9-8.7-3.9,8-5.8,16.3-10.7,25.5-14.2,8.8-3.3,15.4-11.5,25.8-11.8-13.5,18.8-31.1,33.6-44.6,52.1,0,0,0,0,0,0,0,0,0,0,0,.1,3.9-.2,5.8-3.4,8.1-5.9,11.5-12.2,22.9-24.5,34.3-36.8,1.8-2,3.4-4.3,6.5-5,.3,1,.9,1.8.7,2.3-4.5,15.3-9.3,30.5-15.5,45.2-1.2,2.8-3.2,4.6-6.1,5ZM372.8,880.4c-2.2,4.7-5.4,9.1-13.3,7.7,4.8-14,8.5-27.8,12.4-41.4,1.9-6.6,4.2-13.1,5.3-19.8.8-4.9,3.3-7.9,8.9-8.7-.3,21.8-4.1,42.6-13.2,62.2ZM386.2,809.8c-3.3-.4-3.6-3.7-5.7-5.5.8-3,2.9-3.3,5.4-3.3,1.6,2.9,1.2,5.7.3,8.7ZM387.6,785.6c-12.9-5.8-54.9-94-55.8-110.7,7.8-5.3,17.1,1,25-3.4,3.3,1.9,3.4,5.5,4.4,8.5,1.7,4.9,4.2,5,7.6.9,4.1,4.8,1.1,7.8-2.1,10.4-10.7,8.9-12.8,31-4.4,42.4,6.1,8.1,11,11.7,25.1,14.5.8,12.1.8,24.5,0,37.3ZM389.8,738.8c-8,2.3-13.9-2-19.5-6.1-11.4-8.4-13-24.4-3.6-35.2,3.3-3.8,3.7-10.9,11.2-9.7,0-4.2-3.9-5.7-4.5-9.1-1.8-10.1,6.5-19.5,17.1-15.8,12.2,4.2,20,2.4,29.4-6.1,7.8-7.1,17.4-4.1,21.5,4.5-15,.8-20.9,17.3-35.2,19.4,7.3,1.3,12.5-2.3,17.3-6.8,2.9-2.6,5.8-5,9.2-6.9,6.3-3.3,12.1-3.3,17.6,2.4-.6-8.5,10.4-7,11.2-14.8-5.2,1.5-8.7,7.7-14.6,5.6-2.1-.7-3.3-2.8-3.4-5.9,25.1-10.1,49-22.6,69.3-41.1-9.9,5.6-18.9,12.6-29.1,17.9-11.2,5.8-22.2,12.2-33.9,17-2,.8-4.1,1.6-6.2,2.1-2.8.7-5.5.7-7.3-2.2-1.8-3,.7-4.6,2.1-6.4,23.4-29.9,53.7-48.2,91.2-54.4,2.1-.3,4.2-.7,6.1-1.9-23.8-2-43.4,9.9-63.9,19.5,8.8-7.8,19.9-12.2,30-19.1-4-3-6.5.2-9.2,0,0,0,0,0,0,0,0,0,0,0-.1,0-1.5,2.2-4.1,2.4-6.4,3.1,0,0,0,.2-.1.2-.1,0-.2,0-.4,0-2.8,2.2-5.5,4.5-9.4,4.6,0,0-.1,0-.2.2-.1,0-.2.1-.3.2-1.1,1.8-2.3,3.4-4.8,2.9,0,0,0,0-.1,0,0,.1-.2.2-.3.3-1.4,4-5.2,5.7-8.2,8.2-7.9,6.7-15.8,13.5-23.7,20.3-1.5,2-2.3,4.8-5.6,4.3,0,0,0,0,0,0,0,0,0,0,0,0,.9,1.7-.2,2.6-1.4,3.4-.5,1.8-1.6,2.8-3.4,3.1,0,0,0,0,0,.1,0,0-.1,0-.2,0-.4,2.5-1.1,4.7-4.8,4,1.4-1.9,2-4.3,4.8-4,0,0,0,0,0,0,0,0,0,0,.1,0-.7-2.2,1-3,2.3-4,.6-1,1.2-2.2,2.5-2.5,0,0,0,0,0-.1,0,0,.1,0,.2,0,.5-2.7,2.4-4.1,4.8-5,6.8-9.7,16.2-16.5,25.8-23,2.3-1.6,5-2.6,6.9-4.9,0-.2.1-.3.1-.5,0,0,.2,0,.2,0,1.6-1,3.2-1.9,4.8-2.9,0-.1.1-.2.2-.3.1,0,.2,0,.3,0,2.8-2.2,5.6-4.4,9.4-4.6,0,0,.1-.1.2-.2,0,0,.2,0,.3,0,1.4-2.6,3.3-4,6.4-3.1,0,0,0,0,0,0,0,0,.1,0,.1,0,4.2-6.2,11.4-6.1,18.2-9.3-.4,6.4,2.5,6.9,7.1,5.9,6.4-1.4,13-1.9,19.5-2.8,5.3-.7,10.4,0,15,3.2,0,2.5-3.8.3-3.4,3q12.3,8.9,5.6,24.4c-.8,1.8-1.6,3.5-1.3,5.5,0,0,0,0,0,0,0,0,0,0,0,0h0c8.3-6.6,10.4-15.8,9.5-25.7-.8-9.5-8-13.1-16.3-14.8-10-2-20.1-1.2-30.2,0,13.1-3.1,26.4-4.9,39.4.2,10.5,4.1,14,13.5,10.3,25.4-7.6,24.1-22.5,43.1-41.7,59-1.8,1.4-3.6,3.5-7.2,1.5,12.1-9.7,22.6-20.4,31.1-32.9,2.6-3.8,6.9-7.1,5.3-12.7,0,0,0,0,0,0-4.5,5.8-8.9,11.6-13.4,17.3-7.7,9.8-16.8,18.1-26.4,26-1.5,1.3-3.1,2.2-5.2,2-1.6-.2-3.2,0-4.6,1.3-10,9.9-24,8.2-36,12.7,10.8-12,23.5-21.2,36.5-30.2,12.7-8.8,27.4-14.1,40.2-22.6-.5-.8-.9-1.6-1.4-2.5-9,4.9-18.3,9.2-26.9,14.7-20,12.6-39.8,25.5-57,41.9-1.5,1.5-3.5,3.4-5.4,3.5-15.6,1.3-28.7,9.9-42.4,16-11.4,5.1-22.1,13.5-24.2,28.1-.8,5.3,2.2,9.6,2.5,15ZM411.1,760.2c5.8,1.1,10.8.2,15.8-1.3,7.9-2.4,8.7-1.8,12.6,7.3-6.1,2.4-12.9,1.2-18.8,4.8-6.5,4-5.6,11.2-9,16.7.2-9-2.5-17.9-.6-27.5ZM494.1,868.9c-1,4.8-2,9.7-2.4,14.6-.5,5.7-4.4,8.8-9,9-15.3.7-30.8,2.3-45-6.3-4.7-2.9-8.7-6.2-10.7-11-9.5-22.5-13.7-46.2-14.7-71.1,3.4.9,3.8,3,4.8,4.5,7.2,10.7,16.8,18,29.4,21.2,2.4.6,4.6,1.3,6.4,3.4,10.1,11.9,22.6,20.8,36.7,27.4,3.9,1.8,5.4,4,4.4,8.3ZM498,892.2c-.5-9.1,2.9-16.6,3.6-24.5,4.1-.2,6.1,1.3,5.2,4.8-1.6,6.5.7,11.7,5.4,16.5-4.3,3.8-9.1,2-14.1,3.2ZM485.8,848.1c11.5-1.3,21.6-.3,31.4,0s9.6,6.5,14.3,10.3c4.1,3.3,7.9,6.9,11.8,10.2,1.6,1.3,3.1,3.1,6.5,2.1-5.5-9-14.4-14.1-20.9-21.8,3-2.8,6.8-.6,8.9-3.5,7.7,9.5,10.7,21.9,23.3,25.7-4-8.6-12.6-13.9-16.3-23.5,23.2-4.8,45.7-7.3,68.6-5,7.7.8,8.3,2,6.7,9.4-2.1,9.5-.5,17.7,6.8,24.8,4,3.9,7.1,8.8,9.9,12.4-14-1.5-29.9-3.1-45.7-6.4-12.3-2.6-24.7-5.1-37-8.1-3.9-1-3.8,3.2-7,4.3-6-8.5-15.9-9.7-24.9-12.7-12.5-4.2-23.9-10.5-36.5-18.4ZM520.8,883.6c8.8,2,17.6,3.1,22.8,8,4.7,4.5,10.8,9,13.6,15.5-13.2-6.2-26.2-11.6-36.4-23.5ZM620.5,924.4c-1.8,2.8-5.7,4.2-8,2.4-7.5-5.6-17.1-2.4-24.8-6.9-2.8-1.6-6.1-2.6-9.3-3.3-12.4-2.5-16.5-12.2-19.8-22.5,6.5-3.1,7.1,3,9.2,6.1,3.3-1.7-.2-4.5,2.8-6.4,15.5-.2,30.5,7.7,45.6,8.6,3.5-2.3.3-5.3,2.8-7.7,2.7,6.4,7.3,10.9,12.7,14.8-10.7-1.3-20.4-6.3-30.8-8.2,8,9.9,21,10.3,31.8,18-5.8,0-9.5,1.1-12,5ZM774.8,908.9c3.3-4.1,8.7-4.3,12.9-6.7,1.3-.7,2.6.1,3.7,1.1,11.5,9.8,23.9,18.4,37.5,25.1.7.3,1,1.2,1.6,1.9-15.5,0-45.5-11.5-55.7-21.4ZM880.2,899.5c-14.4-3.3-28.7-7.5-42.9-11.5-8.6-2.4-13,1.3-11,9.9,2.2,9.1,6.4,17,14.4,22.3,5.5,3.7,10.8,7.6,16.5,10.8,5,2.9,10.3,3.3,15.8,0-3-5.3-9.9-.7-12.9-5.5,12.9-6.2,20.3.4,31.5,17.7-36-8.8-67.9-22.3-96.6-45.1,5.8-4.5,10.5-9,15.6-13.1,10.6-8.7,12.8-21.4,14-34.1.5-5.2.2-10.6-.8-15.6-1-4.9-.2-8.3,4.9-10-2.1-5.6-3.5-10.9-7.6-15,.6,5.2,2.5,10.4-3.2,14-1.3.8-.7,3-.6,4.7.2,12.4-.3,24.7-4,36.7-2.9,9.4-10.6,14.4-18.2,19.3-20.7,13.4-44.1,21.2-66.5,30.9-5.6,2.4-11.2,4.6-17,6.3-5.2,1.5-10.7,3.2-15.5-1.6-1.9-1.8-3.7-1.1-5.8.3-10.3,7-20.4,5.6-30.7-.7-9.2-5.6-17.7-12-26.2-19.1,4-3,6.1-1.2,8.4,1.7,7.9,9.8,19,14.7,30.6,18.5,1.8.6,3.8,1,5.5-2-8.9-8-22.8-9.2-29.7-19.8.6-2.1,2.1-2,3.3-2.5,6.1-2.7,6.8-6.3,1.4-10.1-8.5-5.9-15.2-13.5-22.2-20.9-3.8-4.1-6.6-7.9-3.2-13.8,2.3-4.1-1-7.7-2.8-11.4-2.8-5.9-10.1-8.3-11.5-15.2-8.2-3.3-14.3-9.6-20.5-15.4-2.9-2.7-5.3-5.7-8.9-7,4.9,11.8,14.7,19.5,23.9,28.5-8.5-.5-17.1-1.2-25.6-1.4-31.9-.7-63.8-.8-95.8-1.9-14.2-.5-28.7-2.1-41.9-8.1-10.9-4.9-21-11.1-23.9-24.2-2.3-10.3.9-16.5,11.4-19.3,12.3-3.3,24.9-4.5,37.6-4.4,8.2,0,16.5.6,24.7-1,6.3-1.2,12.6-6.9,19.2-.4.3.3,1.6,0,2.3-.4,23-10.1,48.3-10,72.2-15.9,8.5-2.1,17.3-3.4,26.2-3.4s7.6-2,6.1-7.5c-.7-2.6-1-5.4-.2-8.2,3,0,5,3.8,9.6,1.5-9.4-8.7-20.1-15.3-27.3-25.5-7.3-10.2-11.5-21.9-16.3-33.5-4.6,9.9-2.4,18.9,2.5,27.2,4.2,7,8.8,13.9,16.3,18.3,4.3,2.5,6.6,6.5,4.3,12.5-11.3-1.2-22.8-2.3-34.2-3.5-7.1-.8-14.2-1.7-21.3-2.5-5.8-.7-11.7-1.5-10.8,7.9-15.8-4.5-21.1-17.3-27-29.2-3-6-2.4-6.3-10-6.6,2.9,10.7,11.7,16.9,17.6,25.2-11.3-3.1-19.9-11.8-31.4-14.6,5.1,8.6,15.4,12.1,20.9,20.1-3,3.6-6.5,2.8-9.7,3.3-11.1,1.7-23,1.4-33.3,5.5-12.1,4.8-24.7,6.1-36.9,9.5-7,1.9-14,4.4-21.3-.6-9-6.2-15.3-14.3-18.9-24.3-2-5.7,1.5-9.9,5.8-13.5,11-9,23.3-15.6,36.6-20.4,18.1-6.5,36.6-12,55.2-16.8,4.1-1,8.1-1.8,11.8.8,2.7-1.4,2.7-4.2,3.9-6.2,1.2-2.1,2.8-3.6,5.3-2.5,5.9,2.5,11.4.5,16.9-1.2,28.3-8.7,57-14.4,86.6-16.6,7.1-.5,14.2-2,21.2-3.3,11.2-2,22.2-5.3,33.9-5.6-9.1-6-18.9-9.1-29.3-8.8-8.2.2-13.4-3.1-17.8-9.6-4.9-7.3-11.6-13.2-16.2-21.5,3.4-1.2,6.1.4,8.5,1.6,16.4,7.9,33.5,14.2,50.4,20.8,21.5,8.4,39.3,21.1,53.7,39.6,11.4,14.7,25.5,27.3,38.2,41,17,18.2,31.6,38.1,42.5,60.5,2.1,4.3,4.1,9.4,11.5,7-4.3-14.8-13-27.1-21.5-40.4,6.3.8,9.8,4.5,13.1,8.3,12.7,14.5,25.2,29.1,37.9,43.6,2.1,2.5,3.8,6.5,8.5,4-18.7-33.8-45.8-60.1-73.1-86.3,2.4-1.3,3.8.7,5.4,2,20.8,18.1,42.5,35.4,59.3,57.3,13.7,18,26,37.3,34.3,58.7,7.7,19.8,14.8,39.7,17.7,60.8.4,2.7.9,5.4,1.2,8.2,1.5,11.7-6.7,13.6-14.3,11.8ZM487.1,750.9c-1.1-1.7-3.5-3-1.8-6.3,5,5.4,9.2,10.8,12.5,17.1-6.3,3-10.4,1.2-11.6-4.6-.5-2.3,2.5-3.7.9-6.2ZM485.3,763.7c-13,3.4-32.4,3-36.8-.9,3.9-3.1,8.4-1.6,12.5-2.2,6.2-.9,12.6.5,18.7-1.5,3.9-1.4,4.5,1.6,5.7,4.7ZM498.9,753.2c2-2.1,4.5-1.6,6.9-1.5,8.5.5,17-.2,25.5-1.5,3.3-.5,6.5-.4,9.8.5,5,1.4,9.8,4,14.6-2.3,2.4-3.1,8.1.7,12.5,2.5-14,2.8-28,5.6-42,8.5-3.7.8-7.4.6-11,2.8-3.9,2.4-14.4-3.9-16.2-9.1ZM1278.6,898.3c-23.7,25.4-52.3,38.7-87.1,38.5-19.9,0-39.4,2.6-59.1,5.6-17.7,2.7-35.5,4-53.4,5.4-28.8,2.3-57.6,4.4-86.5,6.1-28.7,1.7-57.3-.3-85.6-4.7-2.5-.4-5.4-.6-8.5-4.2,9.4-1,17.6.6,25.8.2,20-1.1,40.4.3,59.3-7.8,15.1-6.4,17.7-13.3,10-28-7.8-14.7-18.4-27.4-31.7-37.6-6.5-5-13-10-20.5-13.6-7.9-3.8-15.6-4.4-22.7-.2-8.5,5-18,.5-22.1-6.3-4.7-7.6-6.6-16.3-10.1-24.4-6.8-15.7-14.3-30.9-22.4-46-8.9-16.5-18.1-32.7-29.7-47.4-5.8-7.3-11.9-14.4-17.8-21.6-1.2-1.4-2.7-2.7-2.8-5.4,2.4.6,3.6,2.2,4.9,3.8,12.7,15.2,25.9,29.9,36.5,46.7,2.4,3.7,5.2,7.8,11.9,6.1-6.7-15.8-17-28.6-26.6-41.8-9.6-13.1-19.1-26.3-33.5-37,5.1-1.8,8.4-1,11.8-.4,33.8,6.4,67.2,14.4,99.6,26.5,17.8,6.6,36,12,54.2,17.2,19.5,5.5,38.2,3,55.5-7.8,15.4-9.6,32.3-15,50.2-17.8,2.1-.3,4.2-1,6.3-1.6.1,0,.2-.4.4-1.4-7.1-2.3-14-.6-20.8.9-15.9,3.5-31.1,9.2-45.2,17.6-8.2,4.8-16.9,6.5-26.2,4.8-16.2-3-31.8-8-47.2-15.6,9.4-12.1,21.7-20.1,32.8-29.3,21-17.2,45-29.5,68.7-42.3,8.1-4.4,15.2-2.7,22.3,1.9-7.8,16.4-22.1,28.8-38,32.6,3.3-8.4,13.4-11.3,13.4-22.4-18.3,7.6-31.7,21.4-47.7,31,2.2,2.7,3.9,1.4,5.8.5s3.5-2.9,7.2-1.4c-12.9,9.9-26.8,17.1-39.9,25.8,2.3,2.8,3.9,1.1,5.4.4,34.5-16,70.1-29,106.2-40.7,3.9-1.3,8-1.9,12-3.1,5.6-1.7,7.6,1,7.9,6.6-23.8,4.3-47.3,9.9-68.9,21.2-1,.5-.9,1.9-.2,3.4,4.1,1.1,7.8-1.2,11.6-2.3,16.6-5.1,33.1-10.5,50.2-13.3,21.8-3.5,43.4-4,64.1,5.1,13.7,6,26,14.3,37.5,23.8,31.1,25.9,51.3,59.7,70.6,94.5,10.7,19.3,16.6,40,21.6,61.2,3.3,14.2,1.1,26.7-9.5,38Z"/>
        </g>
      </g>
    </g>
  </g>
</svg>