<svg xmlns="http://www.w3.org/2000/svg" width="221.9" height="60.856" viewBox="0 0 221.9 60.856">
  <defs>
    <style>
      .cls-1 {
        fill: #ffde00;
      }
    </style>
  </defs>
  <path id="Top-Left_Corner_Logo" data-name="Top-Left Corner Logo" class="cls-1" d="M435.674,849.927l-22.186,40.717h26.519l22.43-40.717h-9.981l-18.317,32.85h-6.826l18.361-32.85Zm120.916,15.611H531.172l-4.845,7.864h25.42Zm-77.509-1.685v0l5.75-7.068a3.727,3.727,0,0,0,.746-2.274,4.467,4.467,0,0,0-.765-2.436,4.924,4.924,0,0,0-3.847-2.151H464.8l-22.434,40.717h23.49a11.5,11.5,0,0,0,2.952-.482,11.994,11.994,0,0,0,3.013-1.382,6.229,6.229,0,0,0,1.942-1.952l7.768-15.093.01-.026a5.964,5.964,0,0,0,.43-2.094,3.428,3.428,0,0,0-.172-1.109,6.2,6.2,0,0,0-2.122-2.855c-.6-.414-1.106-.745-1.523-1A4.224,4.224,0,0,0,479.081,863.853Zm-5.742,8.895a38.26,38.26,0,0,1-2.411,4.469c-.694,1.068-3.028,3.933-3.029,3.939s-.084.1-.307.311a7.745,7.745,0,0,1-1,.785,4.759,4.759,0,0,1-2.207.525h-9.19l8.325-15.433h7.015l.067.012a3.26,3.26,0,0,1,.44.1c.178.056.414.163.863.36.433.153,1.623.928,1.672,1.6a5.941,5.941,0,0,1,.083,1.044,7.872,7.872,0,0,1-.322,2.286Zm.94-13.037-.042.037a3.037,3.037,0,0,1-.359.193,2.7,2.7,0,0,1-.575.22l-.093.021h-5.691l2.56-4.952H476.8l.17.009Zm57.086-4.042a7.083,7.083,0,0,0-.949-3.637,4.456,4.456,0,0,0-2.9-1.871,8.558,8.558,0,0,0-1.818-.231h-13.06a7.248,7.248,0,0,0-2.366.469,3.8,3.8,0,0,0-1.906,1.381c-.227.332-1.935,2.84-3.742,5.549-1.949,2.942-3.952,6.008-4.465,7.14a8.09,8.09,0,0,0-.888,3.2,3.814,3.814,0,0,0,.391,1.67,7.49,7.49,0,0,0,2.912,3.226,6.152,6.152,0,0,0,2.812.837h7.353l-7.424,13.574a1.781,1.781,0,0,1-.131.236,13.876,13.876,0,0,1-3.266,3.3,12.142,12.142,0,0,1-2.969,1.719,8.506,8.506,0,0,1-.865.284c-.113.031-.181.043-.221.053H385.591l-4.186,7.962H497.723c-.016,0,.061,0,.213,0a30.439,30.439,0,0,0,4.509-.415,9.774,9.774,0,0,0,5.949-3.1,16.827,16.827,0,0,0,2.448-3.083l19.115-33.1A11.22,11.22,0,0,0,531.365,855.669ZM519.56,857.9c-.039.121-.064.151-.055.156l-.024.042s-.66,1.477-1.473,3.1a21.7,21.7,0,0,1-2.222,3.822c-.38.386-.61.625-.751.785l-.133.153a2.3,2.3,0,0,1-.439.159,7.093,7.093,0,0,1-1.2.158h-3.241a.649.649,0,0,1-.33-.487,2.524,2.524,0,0,1-.045-.432.926.926,0,0,1,.034-.287l3.555-6.473c.021-.041.1-.213.245-.452a4.517,4.517,0,0,1,.5-.711,1.354,1.354,0,0,1,.4-.315l.041-.023h4.736l.058.009a1.375,1.375,0,0,1,.366.105l.04.028.016.2A1.672,1.672,0,0,1,519.56,857.9Zm-110.676-7.97-22.349,40.717h24.607l3.933-7.866h-14.06l18.088-32.85ZM581.889,882.95H560.48l19.571-30.738.014-.026a8.791,8.791,0,0,0,.844-3.8,8.518,8.518,0,0,0-1.475-4.795c-2.437-3.645-5.547-3.922-5.7-3.92l-173.164,0h-.007c-.283,0-3.932.047-10.928,2.379a50.845,50.845,0,0,0-13.6,6.911c-9.517,6.989-11.146,10.548-12.162,12.015a21.654,21.654,0,0,0-2.13,4.463,27.353,27.353,0,0,0-1.749,8.621,11.385,11.385,0,0,0,.074,1.337,23.807,23.807,0,0,0,.972,5.115,17.62,17.62,0,0,0,2.7,4.939,15.752,15.752,0,0,0,5.343,3.592,23.838,23.838,0,0,0,5.528,1.584,16.865,16.865,0,0,0,2.7.194h.076c.359,0,.7,0,1.042,0,2.073,0,3.8-.181,3.823-.182l.482-.052,4.007-7.707-1.628.132s-1.7.139-3.686.139a16.817,16.817,0,0,1-5-.542c-3.313-1.318-7.019-3.528-7.588-8.477a16.419,16.419,0,0,1-.106-1.826,12.772,12.772,0,0,1,2.805-8.09,45.944,45.944,0,0,1,7.1-7.291,60.819,60.819,0,0,1,10.713-6.1,33.762,33.762,0,0,1,7.473-2.013c2.229-.38,3.982-.55,4.243-.576H565.285a9.837,9.837,0,0,1,2.1.409,4.028,4.028,0,0,1,1.324.666,1,1,0,0,1,.424.8,2.335,2.335,0,0,1-.421,1.172c-1.234,2-7.236,11.5-12.926,20.492s-11.053,17.451-11.066,17.471l-.882,1.388h33.3Z" transform="translate(-359.989 -839.675)"/>
</svg>
